<svg xmlns="http://www.w3.org/2000/svg" viewBox="-2 12 88 92" role="img"><path fill="#0498BA" d="M0.5,23c8.159-0.027,16.317-0.026,24.476-0.11
		c1.395-0.014,1.69,0.555,1.625,1.773c-0.076,1.408-0.018,2.824-0.018,4.321c0.306-0.057,0.597-0.022,0.742-0.151
		c17.247-15.289,43.533-9.186,51.751,12.423c5.855,15.397,4.752,30.333-6.376,43.337c-11.739,13.717-34.058,14.373-45.195,5.514
		c-0.173-0.138-0.425-0.176-1.005-0.404c0,8.232,0,16.264,0,24.297c-7.9,0-15.8-0.057-23.699,0.044
		c-1.772,0.022-2.363-0.238-2.358-2.233C0.525,82.207,0.5,52.604,0.5,23z M25.926,58.078c-0.111,8.506,5.778,14.645,14.196,14.797
		c8.028,0.145,14.247-5.814,14.377-13.776c0.149-9.208-5.378-15.385-13.883-15.515C32.008,43.452,26.041,49.34,25.926,58.078z"/></svg>